<svg xmlns="http://www.w3.org/2000/svg" width="93.759" height="64.636" viewBox="0 0 93.759 64.636">
  <g id="Group_172" data-name="Group 172" transform="translate(-736.241 -814)">
    <g id="noun_Cat_703406" transform="translate(733.45 814)">
      <path id="Path_147" data-name="Path 147" d="M3.052,31.516c.474-1.028,2.626-5.315,6.373-7.257.006-.035.013-.069.019-.1l.026-.135c.038-.194.076-.381.115-.556l.034-.155c.1-.439.2-.831.3-1.166l.037-.126c.046-.148.091-.288.148-.453l.02-.061a7.842,7.842,0,0,1,.358-.856l.046-.088c.06-.117.121-.224.216-.377a3.154,3.154,0,0,1,.219-.308l.05-.062a3.024,3.024,0,0,1,.26-.275l.076-.067a2.418,2.418,0,0,1,.3-.223l.122-.082.065-.021a2.277,2.277,0,0,1,.306-.119l.1-.027a1.906,1.906,0,0,1,.346-.054l.136,0a2.083,2.083,0,0,1,.819.169l.071.033a1.806,1.806,0,0,1,.251.135l.091.055a3.418,3.418,0,0,1,.579.5c.071.076.142.156.228.262a6.96,6.96,0,0,1,.433.612c.114.181.226.374.337.576l.032.06.014.025.038.072c.04.075.081.155.129.255a22.313,22.313,0,0,1,.971,2.316A12.636,12.636,0,0,1,18.9,25.185a17.154,17.154,0,0,1,6.435,7.847c1.3,2.737,2.022,4.246,6.46,4.246.674,0,1.433-.039,2.252-.114,12.283-1.143,23.558-2.124,23.671-2.133l.154,0a14.564,14.564,0,0,1,6.2,1.608c1.153.368,9.242,3.475,16.617,20.025,3.616,8.113,5.784,8.355,6.184,8.346,1.093-.083,2.066-2.291,2.339-3.284l.126-.464.4-.27a3.9,3.9,0,0,1,3.5-.5,3.582,3.582,0,0,1,1.849,3.142A6.589,6.589,0,0,1,93.4,68.656a8.742,8.742,0,0,1-5.5,3.132c-.128.008-.263.013-.4.013-2.77,0-7.742-1.667-12.281-11.705a40.673,40.673,0,0,0-2.743-5.208q-.023.7-.071,1.426l.007.1c.563,7.1,1.886,8.99,2.429,9.47l.622.674L70.445,83.575H53.729l-.094-1.347c-.208-2.667.4-4.625,1.815-5.628a4.872,4.872,0,0,1,3.824-.63c1.539-4.9-.218-9.784-1.152-11.844a38.053,38.053,0,0,1-24.068.615c-.625,1.936-1.694,5.942-1.008,8.913a12.231,12.231,0,0,1-1.865,9.253l-.389.669H12.22l.069-1.514c.128-2.505.938-4.38,2.408-5.376a5.272,5.272,0,0,1,3.458-.814c2.437-7.3-.086-14.571-.588-15.886-4.566-4.672-6.777-7.914-7.2-18.125-2.358-.537-7.711-2.1-8.8-5.387C1.194,35.362,1.163,33.608,3.052,31.516ZM77.545,59.024c4.283,9.47,8.58,10.263,10.206,10.171a6.261,6.261,0,0,0,3.664-2.211A4.139,4.139,0,0,0,92.5,63.921c-.09-.8-.3-1.051-.353-1.075a1.047,1.047,0,0,0-.606.111c-.457,1.332-1.8,4.432-4.472,4.638-2.852.222-5.655-2.916-8.758-9.877a59.982,59.982,0,0,0-5.018-9.2c-.5-.351-1.14-.656-1.063.192a8.016,8.016,0,0,0,1.018,2.806A32.613,32.613,0,0,1,77.545,59.024ZM61.922,76.809a3.749,3.749,0,0,1,2.733-1.233c.113-2.614.006-8.687-2.957-13-.318.162-.708.353-1.16.558,1.147,2.535,3.134,8.261,1.035,14.135A4.137,4.137,0,0,1,61.922,76.809Zm-2.366,1.948c-.439-.187-1.855-.634-2.605-.1a2.624,2.624,0,0,0-.748,2h4.364a4.656,4.656,0,0,1,.2-1.484l-.01.052Zm-40.967-.176a3.094,3.094,0,0,0-2.445.2,2.549,2.549,0,0,0-1.08,1.878h5.112a4.7,4.7,0,0,1,.514-3.369,3.638,3.638,0,0,1,2.872-1.526,22.114,22.114,0,0,0-.782-8.286c-.294-.386-.844-.87-.986.59A23.849,23.849,0,0,1,20.2,77.808l-.459,1.135ZM4.027,35.651c.543,1.639,4.13,3.047,6.945,3.679l-.01.007a2.268,2.268,0,0,1,1.979,1.951c.38,10.774,2.539,12.942,8.163,18.562l.3.3c6.446,6.445,4.666,16.744,4.587,17.178l-.212,1.165L24.6,78.4c-.16-.014-.311-.009-.454-.009-.462,0-1.061.041-1.293.385-.268.4-.211.916-.047,1.887h6.627a8.989,8.989,0,0,0,1.081-6.46c-.79-3.428.258-7.692.97-9.988a1.6,1.6,0,0,0,.256-.489,2.426,2.426,0,0,1,2.877-1.559,35.437,35.437,0,0,0,10.517,1.62,35.026,35.026,0,0,0,15.459-3.578c1.6-.685,2.972.641,3.4,1.129,4.213,6.4,3.194,15.42,3.145,15.827l-.174,1.454-1.421-.336a3.141,3.141,0,0,0-.743-.089,1.16,1.16,0,0,0-.953.344,3.265,3.265,0,0,0-.677,2.126h5.331l2.652-8.889a4.814,4.814,0,0,1,.27-.928,9.594,9.594,0,0,0,0-5.677,31.308,31.308,0,0,1-1.61-8.572l-.022-.278.007-.1c.468-6.7-.811-11.724-3.8-14.929a11.766,11.766,0,0,0-8.117-3.669c-.86.074-11.764,1.026-23.6,2.123-.9.084-1.737.126-2.491.126-6.078,0-7.4-2.781-8.8-5.726a14.718,14.718,0,0,0-5.53-6.8,9.52,9.52,0,0,0-2.184-1.106l-.6-.2-.207-.6a22.684,22.684,0,0,0-.955-2.391c-.111-.145-.79-.963-1.158.085-.008.021-.019.036-.027.056-.059.219-.117.45-.175.709l-.027.121c-.035.163-.071.333-.117.568l-.015.071c-.043.222-.084.453-.118.646l-.1.758-.69.29C7.464,27.872,5.365,32.7,5.346,32.748l-.091.216-.16.169C4.161,34.122,3.8,34.969,4.027,35.651Z" transform="translate(1.427 -18.939)"/>
    </g>
  </g>
</svg>
