<svg xmlns="http://www.w3.org/2000/svg" width="75.468" height="65.869" viewBox="0 0 75.468 65.869">
  <g id="noun_Dog_1879177" transform="translate(-1.671 -3.789)">
    <path id="Path_146" data-name="Path 146" d="M62.987,4.483a10.323,10.323,0,0,1,1.179.193c.413.087.822.171,1.232.28a12.359,12.359,0,0,1,1.266.417A15.964,15.964,0,0,1,70.9,7.921a13.817,13.817,0,0,1,2.248,2.168,13.687,13.687,0,0,1,1.941,3.472,14.02,14.02,0,0,1,.845,3.138,8.887,8.887,0,0,1,.095,1.455,14.025,14.025,0,0,1-.133,1.49c-.091.724-.212,1.444-.368,2.153A13.541,13.541,0,0,1,74.107,25.7c-.22.352-.451.7-.678,1.046q-.8,1.217-1.6,2.429c-.417.618-.838,1.232-1.273,1.838l-.136.186c.106.186.208.371.311.557l.152.292a12.641,12.641,0,0,1,.5,1.421,18.546,18.546,0,0,1,.637,4.328c.023.553.03,1.1.027,1.656,0,.208-.03.6-.015.769.015.114.03.227.049.341a10.009,10.009,0,0,0,.478,1.626c.262.69.569,1.361.883,2.028.417.853.845,1.7,1.277,2.543.231.462.459.929.686,1.391.208.417.421.834.625,1.251a11.01,11.01,0,0,1,.83,2.27,16.439,16.439,0,0,1,.2,4.7l-.921,8.854a6.962,6.962,0,0,1-.394,1.262,4.881,4.881,0,0,1-2.013,2.267,6.824,6.824,0,0,1-1.543.625l-3.407.125a6.972,6.972,0,0,1-.932-.227A4.067,4.067,0,0,1,65.1,66.41a7.767,7.767,0,0,1-.2-.982,7.363,7.363,0,0,1-.1-.864,4.032,4.032,0,0,1,.3-1.77,4.312,4.312,0,0,1,1.251-1.622c.129-.106.262-.208.4-.307a2.5,2.5,0,0,0,.345-.25,1.185,1.185,0,0,0,.11-.159,2.233,2.233,0,0,0,.2-.7,5.914,5.914,0,0,0,.03-1.186L67.312,55.7c-.455-.178-.906-.364-1.357-.553-.406-.174-.811-.356-1.217-.538a22.665,22.665,0,0,1-2.824-1.543c-.28-.254-.557-.508-.834-.766a25.476,25.476,0,0,1-3.563-4.169c-.292-.443-.569-.9-.819-1.368-.159-.292-.3-.6-.459-.887a4.666,4.666,0,0,0-.254-.394,2.055,2.055,0,0,0-.515-.493,2.4,2.4,0,0,0-1.027-.322,9.589,9.589,0,0,0-1.512-.023l-.231.015-.315.019L46.2,46.9c-.269.117-.538.227-.807.334-.3.114-.606.22-.91.322A25.914,25.914,0,0,1,37.673,48.8l-.311.011h-.148c-.08.262-.148.527-.216.792a9.823,9.823,0,0,0-.167,4.109,8.979,8.979,0,0,0,.527,1.649l1.183,6.269L37.226,66.57c-.144.288-.144.288-.3.565a5.306,5.306,0,0,1-2.308,2.176,5.511,5.511,0,0,1-1.088.349l-4.366-.136c-.224-.106-.383-.174-.584-.284a5.267,5.267,0,0,1-.951-.648,5.169,5.169,0,0,1-1.717-3.013,5.959,5.959,0,0,1-.083-.739,3.049,3.049,0,0,1-.008-.322c0-.045.061-.33.083-.421a5.644,5.644,0,0,1,.432-1.205,6.507,6.507,0,0,1,1.3-1.755,7.3,7.3,0,0,1,.572-.508,1.72,1.72,0,0,0,.28-.246.17.17,0,0,0,0-.045,1.131,1.131,0,0,0-.015-.159,4.344,4.344,0,0,0-.2-.69l-.034-.1-3.578-8.551c-.406-.4-.807-.811-1.2-1.22A31.62,31.62,0,0,1,20.97,46.74a12.328,12.328,0,0,1-1.508-2.524,8.043,8.043,0,0,1-.4-1.183c-.125-.5-.2-1.016-.284-1.524-.1-.614-.182-1.232-.262-1.85-.227-1.808-.387-3.631-.5-5.45-.045-.747-.076-1.49-.121-2.232-.019-.212-.019-.212-.042-.421a17.73,17.73,0,0,0-1.266-4.378,11,11,0,0,0-1.527-2.687.483.483,0,0,0-.1-.061,1.888,1.888,0,0,0-.216-.1,4.215,4.215,0,0,0-1.3-.235c-.417-.03-.838-.038-1.258-.045l-4.567-.193A5.636,5.636,0,0,1,6.093,23.5a5.252,5.252,0,0,1-.921-.466,5.527,5.527,0,0,1-.641-.466,8.7,8.7,0,0,1-2.721-5.325A6.5,6.5,0,0,1,1.9,14.163a4.526,4.526,0,0,1,.8-1.41,9.689,9.689,0,0,1,.7-.724c.3-.114.3-.117.6-.22a14.637,14.637,0,0,1,1.44-.379c.781-.159,1.565-.3,2.346-.462.7-.152,1.4-.322,2.085-.534a2.083,2.083,0,0,0,.239-.095,2.951,2.951,0,0,0,1.069-1.376c.231-.481.447-.966.686-1.444a10.053,10.053,0,0,1,.591-1.02c.163-.243.254-.352.455-.614l.432-.246a15.5,15.5,0,0,1,4.518-1.406c.8-.144,1.6-.254,2.4-.341.155-.019.913-.1,1.054-.1.072,0,.678,0,.781.008.538.011,1.08.038,1.618.08a8.933,8.933,0,0,1,4.988,1.6,5.66,5.66,0,0,1,1.27,1.478A23.4,23.4,0,0,1,31.233,9.7l.133.3.14.3c1.679,3.332,3.377,6.655,5.03,10,.273.565.531,1.133.807,1.694.095.182.186.356.288.527a2.135,2.135,0,0,0,.387.474,2,2,0,0,0,.58.315,5.421,5.421,0,0,0,.807.224c.553.121,1.114.2,1.675.265.519.061,1.039.114,1.558.163a12.17,12.17,0,0,0,1.577.076,18.97,18.97,0,0,0,3.127-.459c1.05-.22,2.1-.47,3.146-.7.466-.1.466-.1.936-.193a21.442,21.442,0,0,1,4.082-.455,11.764,11.764,0,0,1,1.213.068c.334.034.667.091,1,.125.853.08,1.709.114,2.558.193a9.96,9.96,0,0,1,3.76.982l.083.045c.629-.466,1.247-.959,1.834-1.486A11.739,11.739,0,0,0,67.2,20.891a3.8,3.8,0,0,0,.387-.531,3.158,3.158,0,0,0,.2-.432c.08-.2.152-.4.212-.6a4.893,4.893,0,0,0,.231-1.459,3.383,3.383,0,0,0-.508-1.793,5.418,5.418,0,0,0-.622-.788,8.513,8.513,0,0,0-3.237-2.157c-.481-.186-.974-.349-1.459-.531-.262-.1-.523-.212-.781-.326a4.943,4.943,0,0,1-1.429-.948,3.7,3.7,0,0,1-.394-.481,1.187,1.187,0,0,0-.152-.19c-.042-.053-.083-.11-.125-.163a3.647,3.647,0,0,1-.493-1.076,4.084,4.084,0,0,1,.455-3.085,3.333,3.333,0,0,1,.644-.773,4.3,4.3,0,0,1,.39-.3A3.914,3.914,0,0,1,61.8,4.582a3.321,3.321,0,0,1,.747-.11c.148,0,.292,0,.436.011ZM21.023,6.648a31.319,31.319,0,0,0-3.657.557,11.861,11.861,0,0,0-2.585.845l-.042.023a6.442,6.442,0,0,0-.436.75c-.265.531-.5,1.073-.766,1.6a6.036,6.036,0,0,1-1.508,1.986,4.257,4.257,0,0,1-.94.569,9.792,9.792,0,0,1-1.376.428c-1.228.322-2.475.531-3.714.785-.258.057-.512.114-.762.182-.133.034-.133.034-.262.076l-.083.027a1.81,1.81,0,0,0-.368.553,2.008,2.008,0,0,0-.1.807,7.115,7.115,0,0,0,.1.944c.045.277.1.546.167.815.061.231.133.455.212.678a4.159,4.159,0,0,0,2.172,2.589,2.878,2.878,0,0,0,.614.163l.064.008c1.85.19,3.692.152,5.537.224.307.019.307.019.614.042a8.313,8.313,0,0,1,1.1.167A5.159,5.159,0,0,1,16.346,22c.125.072.421.25.47.288a1.928,1.928,0,0,1,.22.246c.1.114.2.231.292.352A12.194,12.194,0,0,1,18.521,24.8a21.732,21.732,0,0,1,1.311,3.214,17.5,17.5,0,0,1,.8,3.741c.045.754.08,1.512.125,2.266a69.215,69.215,0,0,0,.913,8.062c.019.106.045.212.072.318a8.738,8.738,0,0,0,1.573,2.839,34.4,34.4,0,0,0,2.627,2.93l.269.273.766.762,3.817,9.123a4.879,4.879,0,0,1,.387,2.623,2.717,2.717,0,0,1-.133.455,2.546,2.546,0,0,1-.284.553,3.245,3.245,0,0,1-.565.641c-.171.152-.352.288-.527.443-.114.106-.227.216-.334.334a3.225,3.225,0,0,0-.743,1.3l-.015.064a2.417,2.417,0,0,0,.622,1.5,2.559,2.559,0,0,0,.565.443l.053.03,3.43.11a2.579,2.579,0,0,0,.307-.121,2.726,2.726,0,0,0,1.08-1.148l.011-.023,1.069-4.018-1.008-5.337c-.087-.216-.083-.216-.163-.432-.1-.292-.1-.292-.193-.587A11.4,11.4,0,0,1,34,53.38a12.778,12.778,0,0,1,.265-4.158,28.137,28.137,0,0,1,1.02-3.3c.5.027,1.008.053,1.512.068a22.054,22.054,0,0,0,8.418-1.721l6.625-2.38c.735-.045,1.471-.1,2.206-.072a7.118,7.118,0,0,1,1.649.231,4.635,4.635,0,0,1,2.471,1.713,6.376,6.376,0,0,1,.523.819c.178.322.33.659.508.982.121.22.25.432.379.644a21,21,0,0,0,2.744,3.4c.406.413.819.822,1.258,1.2.045.038.1.064.152.1.2.125.322.2.531.315.413.231.838.447,1.262.652,1.455.694,2.96,1.266,4.461,1.846q.1,2.354.2,4.7c.008.178.015.356.019.538a5.326,5.326,0,0,1-1.016,3.483,3.026,3.026,0,0,1-.432.421c-.193.159-.406.284-.6.436-.087.072-.174.148-.258.227a1.491,1.491,0,0,0-.243.311,1.793,1.793,0,0,0-.038,1.137,2.052,2.052,0,0,0,.561,1.357,1.556,1.556,0,0,0,.352.2,3.046,3.046,0,0,0,.47.144l2.763-.1a2.315,2.315,0,0,0,1.414-1.1,3.021,3.021,0,0,0,.243-.671l.008-.042.9-8.63c.023-.368.038-.735.053-1.1a11.1,11.1,0,0,0-.2-2.721,7.011,7.011,0,0,0-.455-1.315c-.243-.531-.508-1.05-.769-1.569-.656-1.327-1.334-2.638-1.982-3.968-.178-.371-.349-.747-.515-1.122a14.129,14.129,0,0,1-1.148-3.688l-.015-.14-.019-.208c.011-.466.023-.929.019-1.391a16.248,16.248,0,0,0-.781-5.363l-.064-.167-.049-.117c-.159-.3-.322-.6-.493-.887-.269-.474-.546-.948-.819-1.418l.819-1.046c.489-.641.948-1.3,1.4-1.963.8-1.194,1.58-2.4,2.369-3.6a10.315,10.315,0,0,0,1.213-3.4q.21-1.018.322-2.054a7.137,7.137,0,0,0,.061-1.171,10.014,10.014,0,0,0-.641-2.862,10.559,10.559,0,0,0-1.869-3.305,10.125,10.125,0,0,0-1.031-.985,14.109,14.109,0,0,0-4.048-2.57,13.472,13.472,0,0,0-2.077-.572c-.227-.049-.459-.095-.694-.129A1.062,1.062,0,0,0,62.54,7.3a1.021,1.021,0,0,0-.356.193,2.208,2.208,0,0,0-.28.216,1.027,1.027,0,0,0-.246.682.723.723,0,0,0,.091.436l.008.008L61.93,9a1.9,1.9,0,0,0,.174.3,1.7,1.7,0,0,0,.409.288,6.168,6.168,0,0,0,.625.28c.557.227,1.133.409,1.694.625.25.1.5.2.743.315a11.192,11.192,0,0,1,3.661,2.7A6.626,6.626,0,0,1,70.8,16.384a6.347,6.347,0,0,1,.171,1.228,7.588,7.588,0,0,1-.231,2.107A9.3,9.3,0,0,1,70.329,21a6.265,6.265,0,0,1-.379.807,9.279,9.279,0,0,1-1.641,1.963,27.545,27.545,0,0,1-3.1,2.532l-1.175.819c-.315-.277-.637-.584-.974-.845-.1-.072-.2-.136-.315-.2a6.174,6.174,0,0,0-2.039-.584c-1.076-.148-2.164-.171-3.244-.265-.406-.045-.807-.11-1.217-.148a16.138,16.138,0,0,0-4.306.368c-1.357.265-2.695.6-4.044.887-.451.095-.451.095-.9.182a16.581,16.581,0,0,1-3.771.322c-.474-.038-.944-.087-1.418-.133-.432-.045-.622-.064-1.05-.114-.3-.038-.614-.08-.917-.125a7.041,7.041,0,0,1-3.563-1.3,4.5,4.5,0,0,1-.716-.777,8.637,8.637,0,0,1-.788-1.372c-.235-.485-.459-.978-.694-1.463-1.652-3.347-3.354-6.667-5.03-10-.375-.788-.694-1.6-1.05-2.4q-.125-.273-.262-.534a3.342,3.342,0,0,0-.61-.819,4.376,4.376,0,0,0-2.255-.94,19.653,19.653,0,0,0-3.165-.25l-.28,0c-.136.011-.269.027-.4.038Zm2.4,6.212c-.14.591-.284,1.186-.417,1.781-.042.2-.076.4-.11.606a12.791,12.791,0,0,0-.155,1.615,9.992,9.992,0,0,0,2.062,6.69,7.611,7.611,0,0,0,.864.883,7.513,7.513,0,0,0,1.038.747,5.968,5.968,0,0,0,1.035.512,2.151,2.151,0,0,0,.553.136A.579.579,0,0,0,28.6,25.8a.432.432,0,0,0,.114-.087,2.514,2.514,0,0,0,.47-1.05,14.83,14.83,0,0,0,.349-2.16l.212-2.013,2.733.3c-.08.781-.159,1.565-.246,2.346-.038.326-.08.652-.129.974a6.89,6.89,0,0,1-1.285,3.426,3.257,3.257,0,0,1-.694.618,2.685,2.685,0,0,1-.515.273,3.246,3.246,0,0,1-.565.174,5.221,5.221,0,0,1-3.51-.849c-.227-.129-.447-.265-.663-.409a10.224,10.224,0,0,1-2.009-1.774,9.98,9.98,0,0,1-1-1.353A13.346,13.346,0,0,1,20,16.525a16.085,16.085,0,0,1,.371-2.725l.375-1.6q1.342.33,2.676.663Z" transform="translate(0 0)" fill-rule="evenodd"/>
  </g>
</svg>
